<?xml version="1.0" encoding="UTF-8"?>
<!DOCTYPE svg PUBLIC "-//W3C//DTD SVG 1.1//EN" "http://www.w3.org/Graphics/SVG/1.1/DTD/svg11.dtd">
<!-- Creator: CorelDRAW 2020 (64 Bit) -->
<svg xmlns="http://www.w3.org/2000/svg" xml:space="preserve" width="57.3121mm" height="35.8471mm" version="1.1" style="shape-rendering:geometricPrecision; text-rendering:geometricPrecision; image-rendering:optimizeQuality; fill-rule:evenodd; clip-rule:evenodd"
viewBox="0 0 184.83 115.61"
 xmlns:xlink="http://www.w3.org/1999/xlink"
 xmlns:xodm="http://www.corel.com/coreldraw/odm/2003">
 <defs>
  <style type="text/css">
   <![CDATA[
    .str0 {stroke:#FEFEFE;stroke-width:2.53;stroke-linecap:round;stroke-linejoin:round;stroke-miterlimit:22.9256}
    .fil3 {fill:none}
    .fil0 {fill:#FEFEFE}
    .fil1 {fill:#FFCC29}
    .fil2 {fill:#85BD4C}
    .fil4 {fill:#282829;fill-rule:nonzero}
   ]]>
  </style>
 </defs>
 <g id="Camada_x0020_1">
  <metadata id="CorelCorpID_0Corel-Layer"/>
  <g id="_1927153078336">
   <path class="fil0" d="M27.62 38.25l-2.69 30.64c0.76,0.1 1.58,0.18 2.41,0.25 1.63,0.14 3.22,0.23 4.39,0.24 1.39,0.01 2.63,-0.11 3.7,-0.4 0.98,-0.27 1.81,-0.69 2.48,-1.29 3.06,-2.72 3.42,-6.35 3.93,-11.46 0.06,-0.63 0.13,-1.28 0.18,-1.76l0.03 -0.26c0.27,-2.56 0.55,-5.19 0.53,-7.54 -0.04,-4.94 -1.47,-8.91 -7.77,-8.87 -1.32,0.01 -2.84,0.03 -4.41,0.13 -0.97,0.06 -1.92,0.16 -2.78,0.3zm-5.77 65.7c-0.05,1.28 -0.09,2.26 -1.56,3.11l-0.22 0.13 -0.27 0.06c-0.4,0.09 -2.77,0.13 -5.64,0.15 -4.47,0.02 -10.31,-0.01 -11.46,-0.03 -1.1,-0.02 -1.72,-0.18 -2.28,-0.94 -0.5,-0.69 -0.48,-1.25 -0.36,-2.2l0 0 1.18 -13.25 -0 -0c0.56,-7.66 1.31,-15.71 2.06,-23.71 0.22,-2.3 0.43,-4.6 0.64,-6.89l3.09 -34.62 0.05 -0.17c0.52,-1.7 4.04,-2.82 8.46,-3.54 7.02,-1.14 16.92,-1.79 18.29,-1.83 6.11,-0.17 11.19,0.34 15.45,1.81 4.4,1.51 7.9,4.01 10.69,7.75 1.24,1.66 2.31,3.85 3.08,6.27 0.74,2.3 1.2,4.84 1.29,7.36 0.06,1.65 -0.05,4.26 -0.22,6.96 -0.22,3.31 -0.54,6.85 -0.81,8.93 -0.98,7.73 -3.61,14.04 -8.01,18.69 -4.28,4.53 -10.19,7.45 -17.81,8.56 -5.73,0.83 -9.25,0.31 -12.08,-0.1 -0.7,-0.1 -1.35,-0.2 -1.97,-0.26 -0.1,1.56 -0.27,3.13 -0.43,4.69 -0.16,1.47 -0.31,2.93 -0.41,4.36 -0.07,0.96 -0.17,2.06 -0.28,3.16 -0.06,0.6 -0.12,1.21 -0.2,2.25l-0.06 0.75c-0.05,0.63 -0.1,1.27 -0.18,1.98 -0.02,0.22 -0.03,0.41 -0.04,0.59z"/>
   <path class="fil1" d="M150.27 69.62c2.27,0.06 4.77,-0.23 7.02,-0.58l2.72 -30.53 -0.78 -0.07c-2.12,-0.19 -4.21,-0.37 -6.26,-0.4 -1.51,-0.02 -2.64,0.11 -3.61,0.41l-0 -0.01c-0.9,0.29 -1.71,0.77 -2.59,1.46 -3.03,2.39 -3.51,7.87 -3.88,12.22 -0.04,0.49 0.06,-0.69 -0.09,0.97l-0.11 1.21c-0.48,5.06 -1.01,10.71 1.66,13.48 1.24,1.3 3.46,1.77 5.94,1.84zm10.04 -48.62l1.22 0.15c0.14,-1.53 0.32,-3.69 0.51,-6.01 0.48,-5.88 1.05,-12.76 1.4,-13.72l0.29 -0.79 0.78 -0.29c1.14,-0.43 8.6,-0.36 13.47,-0.31 1.68,0.02 3.04,0.03 3.67,0.02l0.32 -0.01c1.78,-0.09 2.78,-0.13 2.87,2.36l0.01 0.16 -3.9 44.26 -0.01 0c-0.27,3 -0.48,5.23 -0.68,7.49 -0.69,7.57 -1.39,15.15 -2.02,23.24l0 0.01c-0.02,0.3 -0.04,0.5 -0.05,0.71 -0.07,1.11 -0.17,2.68 -0.39,3.44 -0.72,2.54 -7.97,3.51 -10.67,3.87 -0.15,0.02 -0.25,0.03 -0.63,0.09 -6.85,1.01 -14.93,1.98 -22.4,1.25 -7.75,-0.75 -14.79,-3.32 -19.15,-9.46 -2.91,-4.09 -4.04,-8.93 -4.27,-14.1 -0.23,-5 0.37,-10.24 0.97,-15.38 0.61,-5.22 2.06,-9.69 4.16,-13.41 2.26,-4 5.26,-7.1 8.76,-9.3 1.87,-1.17 3.86,-2.13 6.04,-2.88 2.17,-0.75 4.49,-1.3 7.04,-1.66 4.98,-0.71 8.47,-0.27 12.68,0.27z"/>
   <path class="fil2" d="M95.04 84.95c-9.88,1.61 -21.24,-0.2 -28.92,-2.28l-1.37 -0.37 0.02 -1.42c0.03,-2.03 0.25,-4.13 0.47,-6.21 0.13,-1.22 0.26,-2.43 0.34,-3.67 0.03,-0.46 0.04,-0.72 0.05,-0.95 0.01,-0.37 0.03,-0.68 0.07,-0.99l-0.01 -0c0.3,-2.39 1,-2.74 4.2,-2.34 0.61,0.08 0.5,0.07 1.75,0.23 6.16,0.8 17.8,2.31 20.7,0.7l-0 -0c0.22,-0.12 0.39,-0.25 0.53,-0.38 0.51,-0.47 0.8,-1.12 0.9,-1.79 0.1,-0.66 -0,-1.31 -0.28,-1.81l0 -0.01c-0.07,-0.13 -0.15,-0.24 -0.23,-0.33 -1.37,-1.48 -8.57,-5.37 -13.15,-7.84 -1.08,-0.58 -2,-1.08 -2.85,-1.55 -3.42,-1.91 -6.1,-4.56 -7.65,-8.05 -1.4,-3.16 -1.86,-6.94 -1.06,-11.42 1.28,-7.22 5.83,-11.31 11.6,-13.52 5.48,-2.1 12.02,-2.45 17.74,-2.21 1.66,0.07 3.29,0.18 4.89,0.34 1.63,0.16 3.24,0.37 4.82,0.64 1.28,0.22 2.88,0.5 4.4,0.83 1.57,0.34 3.12,0.75 4.31,1.2l1.2 0.46 -0.03 1.27c-0.02,1.05 -0.31,5.11 -0.63,8.38 -0.23,2.36 -0.5,4.41 -0.76,4.96l-0.37 0.78 -0.83 0.2c-0.85,0.21 -5.24,-0.36 -7.73,-0.69 -0.41,-0.05 -0.75,-0.1 -1.37,-0.17 -1.44,-0.17 -2.96,-0.33 -4.5,-0.45 -1.48,-0.12 -2.9,-0.22 -4.19,-0.27l-0.2 -0.01c-2.53,-0.11 -5.02,-0.22 -6.12,0.98 -0.21,0.23 -0.4,0.57 -0.5,0.97 -0.08,0.3 -0.1,0.63 -0.02,0.93 0.09,0.34 0.25,0.6 0.45,0.81 0.24,0.26 0.61,0.52 0.99,0.79l5.92 3.34 0 -0c1.04,0.55 2.05,1.1 3.02,1.63 0.99,0.55 2.07,1.15 3.19,1.79 2.18,1.24 4.25,2.45 6.07,3.99 1.9,1.61 3.49,3.54 4.56,6.17 1.09,2.66 1.35,5.62 1.04,8.45 -0.35,3.18 -1.42,6.25 -2.85,8.56 -3.78,6.1 -10.29,9.14 -17.58,10.32z"/>
   <path class="fil3 str0" d="M121.36 106.23c0,0.22 -0.07,0.4 -0.22,0.57 -0.15,0.16 -0.33,0.24 -0.55,0.24l-6.9 0c-0.19,0 -0.35,-0.08 -0.49,-0.24 -0.14,-0.16 -0.2,-0.34 -0.2,-0.53l-0.12 -5.64 -7.23 0 -2.15 5.64c-0.08,0.19 -0.2,0.37 -0.36,0.53 -0.16,0.16 -0.35,0.24 -0.57,0.24l-7.19 0c-0.38,0 -0.57,-0.18 -0.57,-0.53 0,-0.05 0.03,-0.16 0.08,-0.32l9.83 -24.85c0.54,-1.35 1.24,-2.38 2.09,-3.06 0.85,-0.69 1.84,-1.16 2.97,-1.4 1.12,-0.25 2.32,-0.37 3.59,-0.37 1.3,0 2.46,0.12 3.48,0.37 1.01,0.24 1.83,0.71 2.46,1.4 0.62,0.69 0.96,1.71 1.01,3.06l1.06 24.85 0 0.04zm59.62 -14.62c0,0.3 -0.02,0.72 -0.06,1.26 -0.04,0.54 -0.09,0.93 -0.14,1.18l-0.41 2.35c-0.68,3.93 -2.06,6.74 -4.14,8.45 -2.08,1.7 -4.9,2.56 -8.45,2.56 -2.93,0 -5.15,-0.78 -6.66,-2.35 -1.52,-1.57 -2.27,-3.63 -2.27,-6.18 0,-0.38 0.01,-0.78 0.04,-1.19 0.03,-0.42 0.08,-0.85 0.16,-1.28l0.41 -2.35c0.46,-2.68 1.25,-4.83 2.37,-6.44 1.12,-1.61 2.55,-2.78 4.29,-3.49 1.73,-0.72 3.72,-1.08 5.97,-1.08 2.82,0 5.01,0.78 6.56,2.34 1.56,1.56 2.34,3.63 2.34,6.23zm-7.76 0.36c0,-0.89 -0.18,-1.51 -0.55,-1.86 -0.36,-0.35 -0.94,-0.53 -1.72,-0.53 -1.03,0 -1.83,0.35 -2.42,1.04 -0.58,0.69 -1.02,1.83 -1.32,3.43l-0.4 2.35c-0.06,0.41 -0.1,0.78 -0.15,1.1 -0.04,0.32 -0.06,0.63 -0.06,0.93 0,0.95 0.2,1.6 0.61,1.95 0.41,0.35 0.99,0.52 1.75,0.52 1.03,0 1.82,-0.32 2.37,-0.95 0.56,-0.64 0.98,-1.82 1.28,-3.56l0.41 -2.35c0.05,-0.41 0.1,-0.78 0.14,-1.14 0.04,-0.35 0.06,-0.66 0.06,-0.93zm-16.81 -2.52c-0.87,0 -1.71,0.07 -2.54,0.21 -0.82,0.14 -1.59,0.38 -2.3,0.73l-2.76 15.76c-0.03,0.22 -0.1,0.42 -0.23,0.61 -0.12,0.19 -0.37,0.28 -0.75,0.28l-6.09 0c-0.22,0 -0.4,-0.07 -0.57,-0.22 -0.16,-0.15 -0.22,-0.37 -0.17,-0.67l3.86 -21.93c0.05,-0.22 0.14,-0.41 0.26,-0.57 0.12,-0.16 0.36,-0.24 0.71,-0.24l5.68 0c0.22,0 0.39,0.06 0.53,0.17 0.13,0.11 0.18,0.33 0.12,0.65l-0.12 0.97c0.95,-0.95 1.92,-1.53 2.92,-1.76 1,-0.23 1.85,-0.35 2.56,-0.35l0.45 0c0.35,0 0.56,0.08 0.64,0.24 0.08,0.16 0.1,0.35 0.05,0.57l-0.86 4.75c-0.02,0.19 -0.09,0.37 -0.2,0.55 -0.11,0.17 -0.32,0.26 -0.65,0.26l-0.57 0zm-17.1 -14.46c0.54,0 1.1,0.04 1.68,0.12 0.58,0.08 1.13,0.17 1.65,0.28 0.35,0.06 0.57,0.14 0.65,0.27 0.08,0.12 0.1,0.29 0.04,0.51l-0.65 3.73c-0.03,0.24 -0.1,0.44 -0.22,0.59 -0.12,0.15 -0.37,0.22 -0.75,0.22l-1.63 0c-0.54,0 -0.93,0.1 -1.18,0.29 -0.24,0.19 -0.43,0.68 -0.57,1.46l-0.16 0.93 3.01 0c0.57,0 0.8,0.29 0.69,0.86l-0.73 4.06c-0.08,0.57 -0.41,0.86 -0.98,0.86l-3.01 0 -3.13 17.71c-0.38,2.14 -0.96,3.74 -1.75,4.81 -0.79,1.07 -1.77,1.78 -2.94,2.13 -1.18,0.35 -2.55,0.53 -4.12,0.53 -0.52,0 -1.07,-0.04 -1.67,-0.12 -0.6,-0.08 -1.15,-0.18 -1.66,-0.29 -0.19,-0.05 -0.36,-0.14 -0.51,-0.27 -0.15,-0.12 -0.21,-0.29 -0.18,-0.5l0.65 -3.74c0.05,-0.24 0.14,-0.44 0.26,-0.59 0.12,-0.15 0.35,-0.22 0.67,-0.22l1.38 0c0.71,0 1.19,-0.09 1.44,-0.26 0.26,-0.18 0.45,-0.67 0.59,-1.48l3.09 -17.71 -2.68 -0.41c-0.54,-0.05 -0.77,-0.38 -0.69,-0.97l0.61 -3.53c0.08,-0.57 0.42,-0.86 1.01,-0.86l2.76 0 0.16 -0.93c0.38,-2.14 0.96,-3.74 1.75,-4.79 0.79,-1.06 1.77,-1.77 2.97,-2.13 1.19,-0.37 2.57,-0.55 4.15,-0.55zm-26.48 19.13l-0.17 -10.32c0,-0.19 -0.01,-0.33 -0.04,-0.43 -0.02,-0.1 -0.13,-0.15 -0.32,-0.15 -0.19,0 -0.31,0.05 -0.37,0.15 -0.05,0.09 -0.11,0.24 -0.16,0.43l-3.82 10.32 4.88 0z"/>
   <path class="fil4" d="M121.32 106.28c0,0.22 -0.07,0.4 -0.22,0.57 -0.15,0.16 -0.33,0.24 -0.55,0.24l-6.9 0c-0.19,0 -0.35,-0.08 -0.49,-0.24 -0.14,-0.16 -0.2,-0.34 -0.2,-0.53l-0.12 -5.64 -7.23 0 -2.15 5.64c-0.08,0.19 -0.2,0.37 -0.37,0.53 -0.16,0.16 -0.35,0.24 -0.57,0.24l-7.19 0c-0.38,0 -0.57,-0.18 -0.57,-0.53 0,-0.05 0.03,-0.16 0.08,-0.32l9.83 -24.85c0.54,-1.35 1.24,-2.38 2.09,-3.06 0.85,-0.69 1.84,-1.16 2.97,-1.4 1.12,-0.25 2.32,-0.37 3.59,-0.37 1.3,0 2.46,0.12 3.47,0.37 1.01,0.24 1.83,0.71 2.46,1.4 0.62,0.69 0.96,1.71 1.01,3.06l1.06 24.85 0 0.04zm59.62 -14.62c0,0.3 -0.02,0.72 -0.06,1.26 -0.04,0.54 -0.09,0.93 -0.14,1.17l-0.41 2.35c-0.68,3.93 -2.06,6.74 -4.14,8.45 -2.09,1.7 -4.9,2.56 -8.45,2.56 -2.93,0 -5.15,-0.78 -6.66,-2.35 -1.52,-1.57 -2.27,-3.63 -2.27,-6.18 0,-0.38 0.01,-0.78 0.04,-1.19 0.03,-0.42 0.08,-0.85 0.16,-1.28l0.41 -2.35c0.46,-2.68 1.25,-4.82 2.37,-6.44 1.13,-1.61 2.55,-2.78 4.29,-3.49 1.73,-0.72 3.72,-1.08 5.97,-1.08 2.82,0 5,0.78 6.56,2.34 1.56,1.56 2.34,3.63 2.34,6.23zm-7.76 0.36c0,-0.89 -0.18,-1.51 -0.55,-1.86 -0.36,-0.35 -0.94,-0.53 -1.72,-0.53 -1.03,0 -1.83,0.35 -2.41,1.04 -0.58,0.69 -1.02,1.83 -1.32,3.43l-0.41 2.35c-0.06,0.41 -0.1,0.78 -0.15,1.1 -0.04,0.32 -0.06,0.63 -0.06,0.93 0,0.95 0.2,1.6 0.61,1.95 0.41,0.35 0.99,0.53 1.75,0.53 1.03,0 1.82,-0.32 2.37,-0.95 0.56,-0.64 0.98,-1.82 1.28,-3.56l0.41 -2.35c0.05,-0.41 0.1,-0.78 0.14,-1.14 0.04,-0.35 0.06,-0.66 0.06,-0.93zm-16.81 -2.52c-0.87,0 -1.71,0.07 -2.54,0.21 -0.83,0.14 -1.59,0.38 -2.3,0.73l-2.76 15.76c-0.03,0.22 -0.1,0.42 -0.23,0.61 -0.12,0.19 -0.37,0.28 -0.75,0.28l-6.09 0c-0.22,0 -0.4,-0.07 -0.57,-0.22 -0.16,-0.15 -0.22,-0.37 -0.17,-0.67l3.86 -21.93c0.05,-0.22 0.14,-0.41 0.26,-0.57 0.12,-0.16 0.36,-0.24 0.71,-0.24l5.68 0c0.22,0 0.39,0.06 0.53,0.17 0.13,0.11 0.18,0.32 0.12,0.65l-0.12 0.97c0.95,-0.95 1.92,-1.53 2.92,-1.76 1,-0.23 1.85,-0.35 2.56,-0.35l0.45 0c0.35,0 0.56,0.08 0.64,0.24 0.08,0.16 0.1,0.35 0.05,0.57l-0.86 4.75c-0.02,0.19 -0.09,0.37 -0.2,0.55 -0.11,0.17 -0.32,0.26 -0.65,0.26l-0.57 0zm-17.1 -14.46c0.54,0 1.1,0.04 1.68,0.12 0.58,0.08 1.13,0.17 1.65,0.28 0.35,0.06 0.57,0.14 0.65,0.27 0.08,0.12 0.1,0.29 0.04,0.51l-0.65 3.73c-0.03,0.24 -0.1,0.44 -0.22,0.59 -0.12,0.15 -0.37,0.22 -0.75,0.22l-1.63 0c-0.54,0 -0.93,0.1 -1.18,0.29 -0.24,0.19 -0.43,0.68 -0.57,1.46l-0.16 0.93 3.01 0c0.57,0 0.8,0.29 0.69,0.86l-0.73 4.06c-0.08,0.57 -0.41,0.86 -0.98,0.86l-3.01 0 -3.13 17.71c-0.38,2.14 -0.96,3.74 -1.75,4.81 -0.79,1.07 -1.77,1.78 -2.95,2.13 -1.18,0.35 -2.55,0.53 -4.12,0.53 -0.52,0 -1.07,-0.04 -1.67,-0.12 -0.6,-0.08 -1.15,-0.18 -1.66,-0.29 -0.19,-0.05 -0.36,-0.14 -0.51,-0.26 -0.15,-0.12 -0.21,-0.29 -0.18,-0.5l0.65 -3.74c0.05,-0.24 0.14,-0.44 0.26,-0.59 0.12,-0.15 0.35,-0.22 0.67,-0.22l1.38 0c0.71,0 1.19,-0.09 1.44,-0.27 0.26,-0.18 0.45,-0.67 0.59,-1.48l3.09 -17.71 -2.68 -0.41c-0.54,-0.05 -0.77,-0.38 -0.69,-0.97l0.61 -3.53c0.08,-0.57 0.42,-0.86 1.01,-0.86l2.76 0 0.16 -0.93c0.38,-2.14 0.96,-3.74 1.75,-4.79 0.79,-1.06 1.77,-1.77 2.97,-2.13 1.19,-0.37 2.57,-0.55 4.14,-0.55zm-26.48 19.13l-0.17 -10.31c0,-0.19 -0.01,-0.33 -0.04,-0.43 -0.02,-0.1 -0.13,-0.15 -0.32,-0.15 -0.19,0 -0.31,0.05 -0.37,0.15 -0.05,0.09 -0.11,0.24 -0.16,0.43l-3.82 10.31 4.88 0z"/>
  </g>
 </g>
</svg>
